<svg xmlns="http://www.w3.org/2000/svg" xmlns:xlink="http://www.w3.org/1999/xlink" width="90px" height="90px" style="shape-rendering:geometricPrecision; text-rendering:geometricPrecision; image-rendering:optimizeQuality; fill-rule:evenodd; clip-rule:evenodd"><g><path style="opacity:0.952" fill="#ef9733" d="M 41.5,2.5 C 66.172,3.22466 81.0053,15.558 86,39.5C 87.2055,65.2932 75.2055,80.9599 50,86.5C 49.5001,75.1716 49.3335,63.8382 49.5,52.5C 52.8333,52.5 56.1667,52.5 59.5,52.5C 59.2601,49.4212 59.5934,46.4212 60.5,43.5C 56.8776,42.6747 53.211,42.1747 49.5,42C 46.2458,31.6358 49.9125,27.1358 60.5,28.5C 60.5,25.1667 60.5,21.8333 60.5,18.5C 42.4782,16.5258 35.1448,24.5258 38.5,42.5C 35.1667,42.5 31.8333,42.5 28.5,42.5C 28.5,45.8333 28.5,49.1667 28.5,52.5C 31.8333,52.5 35.1667,52.5 38.5,52.5C 38.5,63.5 38.5,74.5 38.5,85.5C 15.9262,81.2525 3.92615,67.5858 2.5,44.5C 4.50558,20.1647 17.5056,6.16471 41.5,2.5 Z"></path></g></svg>